<svg xmlns="http://www.w3.org/2000/svg" viewBox="0 0 58 67" enable-background="new 0 0 58 67"><style type="text/css">.st0{fill:#CC9E61;} .st1{fill-rule:evenodd;clip-rule:evenodd;fill:#020304;} .st2{fill:#020304;}</style><path class="st0" d="M58 50.2l-29 16.8-29-16.8v-33.5l29-16.7 29 16.7z"/><path class="st2" d="M25.6 32.3s3.3-.2 3.3-4.1c0-3.9-2.7-5.8-6.1-5.8h-11.3v21.7h11.3s6.9.2 6.9-6.4c0 0 .3-5.4-4.1-5.4zm-9.1-6h6.3s1.5 0 1.5 2.3-.9 2.6-1.9 2.6h-5.9v-4.9zm6 13.9h-6v-5.8h6.3s2.3 0 2.3 3c0 2.5-1.7 2.8-2.6 2.8zm16.4-12.3c-8.3 0-8.3 8.3-8.3 8.3s-.6 8.3 8.3 8.3c0 0 7.4.4 7.4-5.8h-3.8s.1 2.3-3.5 2.3c0 0-3.8.3-3.8-3.8h11.2c0 .1 1.2-9.3-7.5-9.3zm3.4 6.5h-7.1s.5-3.3 3.8-3.3l3.3 3.3zm-8.1-10.7h8.9v2.7h-8.9z"/></svg>