<svg xmlns="http://www.w3.org/2000/svg" viewBox="0 0 612 792" enable-background="new 0 0 612 792"><style type="text/css">.st0{fill:none;stroke:#CC9E60;stroke-width:0.25;stroke-linecap:round;stroke-linejoin:round;stroke-miterlimit:10;} .st1{fill:#CC9E60;}</style><path class="st0" d="M156 396l17-82.5 18.5 12.7zm17-82.5l66.5-51.5-48 64.2zm41.5 82l50-82-73 12.7zm25-133.5l-48 64.2 73-12.7zm67 134.1l42.5-69.3-84.5-13.3zm25-134.1l17 64.8-84-13.3zm0 0l83.3 51.5-66.3 13.3zm83.3 51.5l33.4 12.7-59.4-64.2zm40.7 82.5l-7.3-69.8-33.4-12.7zm0 0l-17.5 82.2-17.5-12.7zm-17.5 82.2l-65.5 51.8 48-64.5zm-40.5-82l-51 82 74-12.7zm-25 133.8l48-64.5-74 12.7zm-66-134l-43.5 69 83.5 13.2zm-26 134l-17.5-65 83.5 13.2zm0 0l-83.7-51.8 66.2-13.2zm-83.7-51.8l-34-12.7 60 64.5zm-40.8-82.2l6.8 69.5 34 12.7zm58.5-.5l-23-69.3-35.5 69.8zm-17.7 82.7l17.7-82.7-58.5.5zm66.2-13.2l-48.5-69.5-17.7 82.7zm43.5-69l-92-.5 48.5 69.5zm40 82.2l51-82-91-.2zm74-12.7l35-69.5-58 .2zm-71.5-138.7l48.5 69.4-91-.2zm65.8-13.3l-17.3 82.7-48.5-69.4zm-192 216.5l81 23.2-23.3-23.2zm149.7 0l-68.7 23.2-23.3-23.2zm-133-268l68.7-23.2 23.3 23.2zm149.3 0l-80.6-23.2 23.3 23.2z"/><circle class="st1" cx="264.5" cy="313.5" r=".8"/><circle class="st1" cx="239.5" cy="262" r=".8"/><circle class="st1" cx="191.5" cy="326.2" r=".8"/><circle class="st1" cx="173" cy="313.5" r=".8"/><circle class="st1" cx="156" cy="396" r=".8"/><circle class="st1" cx="214.5" cy="395.5" r=".8"/><circle class="st1" cx="306.5" cy="396" r=".8"/><circle class="st1" cx="349" cy="326.8" r=".8"/><circle class="st1" cx="308.2" cy="238.8" r=".8"/><circle class="st1" cx="388.8" cy="262" r=".8"/><circle class="st1" cx="331.5" cy="262" r=".8"/><circle class="st1" cx="414.8" cy="313.5" r=".8"/><circle class="st1" cx="448.2" cy="326.2" r=".8"/><circle class="st1" cx="455.5" cy="396" r=".8"/><circle class="st1" cx="397.5" cy="396.2" r=".8"/><circle class="st1" cx="162.8" cy="465.5" r=".8"/><circle class="st1" cx="196.8" cy="478.2" r=".8"/><circle class="st1" cx="263" cy="465" r=".8"/><circle class="st1" cx="346.5" cy="478.2" r=".8"/><circle class="st1" cx="420.5" cy="465.5" r=".8"/><circle class="st1" cx="438" cy="478.2" r=".8"/><circle class="st1" cx="372.5" cy="530" r=".8"/><circle class="st1" cx="303.8" cy="553.2" r=".8"/><circle class="st1" cx="280.5" cy="530" r=".8"/><circle class="st1" cx="222.8" cy="530" r=".8"/></svg>