<svg xmlns="http://www.w3.org/2000/svg" viewBox="0 0 58 67" enable-background="new 0 0 58 67"><style type="text/css">.st0{fill:#CC9E61;} .st1{fill-rule:evenodd;clip-rule:evenodd;fill:#020304;} .st2{fill:#020304;}</style><path class="st0" d="M58 50.2l-29 16.8-29-16.8v-33.5l29-16.7 29 16.7z"/><path class="st1" d="M19.5 50.2v-22.6h-7.5v22.5h7.5v.1zm-3.8-25.6c2.6 0 4.2-1.7 4.2-3.9s-1.6-3.9-4.2-3.9-4.2 1.7-4.2 3.9c0 2.1 1.7 3.9 4.2 3.9zm7.9 25.6h7.5v-12.6c0-.7 0-1.3.2-1.8.5-1.3 1.8-2.7 3.8-2.7 2.7 0 3.8 2.1 3.8 5.1v12.1h7.5v-13c0-6.9-3.7-10.1-8.6-10.1-4 0-5.8 2.3-6.8 3.8v-3.3h-7.5c.2 2.1.1 22.5.1 22.5z"/></svg>