<svg xmlns="http://www.w3.org/2000/svg" viewBox="0 0 58 67" enable-background="new 0 0 58 67"><style type="text/css">.st0{fill:#CC9E61;} .st1{fill-rule:evenodd;clip-rule:evenodd;fill:#020304;} .st2{fill:#020304;}</style><path class="st0" d="M58 50.2l-29 16.8-29-16.8v-33.5l29-16.7 29 16.7z"/><path class="st1" d="M46.3 24c.3-1.5.3-3-.6-4.1-1.3-1.6-3.9-1.7-5.8-1.4-1.5.2-6.6 2.5-8.3 7.8 3.1-.2 4.6.2 4.4 3.6-.1 1.4-.8 2.9-1.6 4.4-.9 1.7-2.6 5-4.9 2.6-2-2.2-1.9-6.3-2.3-9.1-.3-1.5-.5-3.5-1-5.1-.4-1.4-1.4-3-2.7-3.4-1.3-.4-2.9.2-3.9.8-3 1.8-5.4 4.3-8 6.4v.2c.5.5.7 1.3 1.4 1.4 1.8.3 3.5-1.7 4.7.3.7 1.2 1 2.6 1.4 3.9.6 1.8 1.1 3.7 1.6 5.8.9 3.5 1.9 8.7 4.9 9.9 1.5.7 3.8-.2 5-.9 3.2-1.9 5.6-4.6 7.7-7.3 5-6.3 7.6-13.7 8-15.8z"/></svg>