<svg xmlns="http://www.w3.org/2000/svg" viewBox="0 0 58 67" enable-background="new 0 0 58 67"><style type="text/css">.st0{fill:#CC9E61;} .st1{fill-rule:evenodd;clip-rule:evenodd;fill:#020304;} .st2{fill:#020304;}</style><path class="st0" d="M58 50.2l-29 16.8-29-16.8v-33.5l29-16.7 29 16.7z"/><path class="st2" d="M27.6 24.2c-.4 0-.7.3-.7.7v4c0 .4.3.7.7.7s.7-.3.7-.7v-4c-.1-.4-.4-.7-.7-.7zm0 0c-.4 0-.7.3-.7.7v4c0 .4.3.7.7.7s.7-.3.7-.7v-4c-.1-.4-.4-.7-.7-.7zm16.6-5.5h-30.4c-1.2 0-2.2 1-2.2 2.2v10.2c0 1.2 1 2.2 2.2 2.2h30.3c1.2 0 2.2-1 2.2-2.2v-10.2c.1-1.2-.9-2.2-2.1-2.2zm-20.5 12.2h-1.6v-4.2l-1.9-6.2h1.6l1.1 3.9 1.1-3.9h1.6l-1.9 6.2v4.2zm6-2.1c0 1.2-.9 2.1-2.1 2.1-.6 0-1.1-.2-1.5-.6-.4-.4-.6-.9-.6-1.5v-3.7c0-1.2.9-2.1 2.1-2.1s2.1.9 2.1 2.1v3.7zm5.1 2.1h-1.4v-.9c-.8.9-1.4 1-1.8.9-.6-.1-.9-.7-.9-1.7v-6.1h1.4v5.8c0 .4.3 1.3 1.3.1v-5.9h1.4v7.8zm-7.2-6.7c-.4 0-.7.3-.7.7v4c0 .4.3.7.7.7s.7-.3.7-.7v-4c-.1-.4-.4-.7-.7-.7z"/><path class="st1" d="M29 48.3h1.7v-1c.3.4.8 1.1 1.8 1 1.7-.2 1.4-2.4 1.4-2.4v-4.7c0-1.6-.6-2.2-1.5-2.2-.8 0-1.5.7-1.7 1v-4h-1.7v12.3zm1.7-2v-5.5c.2-.2.5-.5.8-.4.8.1.7 1 .7 1v4.3s-.3.9-.7 1c-.4.1-.8-.3-.8-.4zm-4.8 2h1.7v-9.3h-1.7v7c-1.2 1.4-1.5.4-1.5-.2v-6.8h-1.7v7.2c0 1.2.3 1.9 1 2 .5.1 1.2 0 2.1-1.1v1.2h.1zm-7.2 0h1.8v-10.6h2v-1.8h-5.8v1.8h2v10.6zm19-9.4c1.4 0 2.5 1.1 2.5 2.5v2.5h-3.3v2.1c0 .4.4.8.8.8s.8-.4.8-.8v-1h1.7v.8c0 1.4-1.1 2.5-2.5 2.5s-2.5-1.1-2.5-2.5v-4.4c0-1.3 1.1-2.5 2.5-2.5zm.8 3.6v-1.3c0-.4-.4-.8-.8-.8s-.8.4-.8.8v1.3h1.6z"/></svg>